<svg fill="#333" version="1.1" id="Capa_1" xmlns="http://www.w3.org/2000/svg" xmlns:xlink="http://www.w3.org/1999/xlink" viewBox="0 0 382.697 382.697" xml:space="preserve" stroke="#333"><g id="SVGRepo_bgCarrier" stroke-width="0"></g><g id="SVGRepo_tracerCarrier" stroke-linecap="round" stroke-linejoin="round"></g><g id="SVGRepo_iconCarrier"> <g> <g> <path d="M378.021,80.368h-49.779c-33.526-14.587-62.085-22.043-85.035-22.043c-29.233,0-43.689,12.048-50.698,22.043h-0.69h-0.932 h-0.691c-7.009-9.995-21.461-22.043-50.699-22.043c-22.953,0-51.505,7.456-85.038,22.043H4.676C2.094,80.368,0,82.463,0,85.044 v222.51c0,2.581,2.094,4.677,4.676,4.677H165.01c7.818,11.228,21.3,12.141,25.458,12.141c0.375,0,0.618-0.012,0.88-0.018 c0.263,0.006,0.5,0.018,0.88,0.018c4.159,0,17.641-0.913,25.459-12.141h160.334c2.582,0,4.676-2.096,4.676-4.677V85.044 C382.697,82.463,380.603,80.368,378.021,80.368z M195.559,94.869c0.104-0.429,0.311-1.166,0.67-2.131 c0.073-0.201,0.177-0.441,0.268-0.661c0.28-0.706,0.621-1.498,1.06-2.362c1.352-2.707,3.532-6.062,6.979-9.353 c6.819-6.51,18.56-12.69,38.672-12.69c16.739,0,36.84,4.296,59.954,12.69c7.368,2.673,15.095,5.833,23.084,9.353 c8.269,3.642,16.782,7.605,25.685,12.145v178.653c-18.335-8.678-69.709-31.109-110.628-31.109 c-22.933,0-36.627,7.222-44.805,16.672c-0.304,0.341-0.651,0.664-0.938,1.023V94.869L195.559,94.869z M335.305,283.325H197.172 c5.913-16.471,20.368-24.569,44.116-24.569C272.867,258.756,312.294,273.425,335.305,283.325z M56.456,89.721 c7.986-3.516,15.713-6.68,23.087-9.353c23.121-8.394,43.212-12.69,59.954-12.69c20.122,0,31.855,6.18,38.672,12.69 c3.446,3.291,5.629,6.646,6.981,9.353c0.438,0.865,0.779,1.65,1.06,2.356v2.274v171.724c-8.181-9.45-21.878-16.672-44.804-16.672 c-40.925,0-92.296,22.432-110.634,31.109V101.866C39.68,97.326,48.187,93.362,56.456,89.721z M185.524,283.325H47.395 c23.008-9.9,62.432-24.569,94.01-24.569C165.159,258.756,179.609,266.854,185.524,283.325z M373.344,302.878H215.093 c-1.474,0-2.752,0.791-3.636,1.942c-1.418,5.108-7.301,9.183-14.961,10.564c-1.802,0.317-3.659,0.548-5.61,0.548 c-1.614,0-3.167-0.14-4.677-0.365c-8.689-1.284-15.232-6.04-16.073-11.886c-0.749-0.487-1.598-0.804-2.527-0.804H9.353V89.721 h24.978c-3.446,1.69-6.844,3.31-10.382,5.13c-1.559,0.797-2.53,2.408-2.53,4.159v188.999c0,0.742,0.225,1.437,0.542,2.082 c0.094,0.183,0.225,0.328,0.338,0.499c0.292,0.438,0.661,0.816,1.09,1.133c0.106,0.073,0.155,0.201,0.268,0.268 c0.082,0.049,0.18,0.037,0.262,0.085c0.536,0.287,1.111,0.451,1.696,0.512c0.131,0.013,0.244,0.073,0.375,0.073 c0.037,0,0.07,0.019,0.106,0.019h152.634c2.213-0.463,4.737-0.676,7.48-0.762c0.313-0.012,0.618-0.018,0.932-0.03 c0.398-0.006,0.821-0.006,1.227-0.012c0.013,0,0.03,0,0.043,0c0.289-0.007,0.569-0.007,0.861-0.007 c0.542-0.006,1.06-0.018,1.607-0.018c0.862,0,1.678,0.024,2.512,0.036c0.28,0.007,0.572,0.007,0.853,0.013 c0.024,0,0.037,0,0.055,0c0.421,0.012,0.841,0.024,1.261,0.036c0.316,0.013,0.615,0.043,0.926,0.055 c2.216,0.116,4.311,0.305,6.168,0.688h153.952c0.037,0,0.061-0.019,0.098-0.019c0.121,0,0.237-0.061,0.365-0.073 c0.584-0.061,1.169-0.23,1.711-0.523c0.079-0.036,0.177-0.024,0.262-0.073c0.109-0.073,0.158-0.207,0.268-0.28 c0.427-0.316,0.799-0.693,1.091-1.126c0.115-0.165,0.243-0.316,0.335-0.499c0.328-0.64,0.548-1.34,0.548-2.083V99.004 c0-1.751-0.98-3.355-2.533-4.159c-3.544-1.82-6.941-3.44-10.382-5.13h24.978V302.878z"></path> </g> </g> </g></svg>
